<?xml version="1.0" encoding="UTF-8"?>
<svg xmlns="http://www.w3.org/2000/svg" version="1.1" viewBox="0 0 1920 1080">
  <!-- Generator: Adobe Illustrator 30.0.0, SVG Export Plug-In . SVG Version: 2.1.1 Build 123)  -->
  <defs>
    <style>
      .st0 {
        stroke-linecap: round;
      }

      .st0, .st1 {
        fill: none;
        stroke: #ef7f1a;
        stroke-miterlimit: 22.93;
        stroke-width: 5px;
      }
    </style>
  </defs>
  <g id="_Слой_93" data-name="Слой_93">
    <line class="st1" x1="1264.61" y1="535.52" x2="1264.61" y2="535.51"/>
  </g>
  <g id="_Слой_92" data-name="Слой_92">
    <line class="st1" x1="1291.89" y1="535.47" x2="1291.89" y2="535.51"/>
  </g>
  <g id="_Слой_12" data-name="Слой_12">
    <path class="st0" d="M120.15,428.72c-11.19-31.68-22.38-63.35-27.95-80.66-5.58-17.3-5.55-20.22-4.12-23.24,1.43-3.03,4.25-6.16,9.37-6.32,5.12-.16,12.53,2.63,27.13,9.17,14.6,6.54,36.38,16.81,48.95,22.26,12.57,5.46,15.94,6.1,18.77,5.84,2.83-.26,5.13-1.41,6.89-2.95,1.76-1.54,2.98-3.45,3.91-6.4.93-2.94,1.55-6.9.04-10.34-1.52-3.44-5.17-6.34-9.1-9.08-3.93-2.73-8.13-5.3-20.83-10.77-12.71-5.48-33.92-13.87-46.24-17.83-12.32-3.95-15.76-3.47-18.35-1.28-2.6,2.19-4.35,6.08-4.99,8.93-.64,2.85-.17,4.66,5.3,23.35,5.47,18.69,15.93,54.26,26.4,89.84"/>
  </g>
  <g id="_Слой_11" data-name="Слой_11">
    <path class="st0" d="M271.1,703.38l-86.35-26.26c-33.2-6.99-38.91,21.27-61.13,26.29-49.93,11.29-71.75-20.54-66.98-49.55,4.35-26.49,31.58-50.87,65.8-33.15,41.87,21.68,12.62,54.47,44.74,80.02,16.73,13.31,40.01,27.91,83.25,57.2"/>
  </g>
  <g id="_Слой_10" data-name="Слой_10">
    <path class="st0" d="M1677.46,381.33c15.08-3.97,30.3-6.36,40.63-8.62,30.75-6.72,39.04,20.3,4.13,31.15-12.57,3.91-31.11,7.41-41.78,11.91-10.67,4.5-13.48,10-13.58,16.21-.1,6.21,3.61,21.78,33.01,18.71,29.4-3.08,81.6-13.48,114.33-20.23,32.73-6.74,43.46-13.53,47.43-20.29,8.45-14.38-7.34-23.16-21.92-21.23-8.53,1.13-26.49,2.86-35.04,4.5-34.99,6.72-37.2-25.33-19.35-31.38,18.28-6.19,42.34-8.81,57.24-11.23"/>
  </g>
  <g id="_Слой_9" data-name="Слой_9">
    <path class="st0" d="M573.77,629.72c-2.33,17.88-5.1,33.25-5.1,33.25-9.13,19.35-27.37,24.52-39.44,18.81-12.74-6.03-18.83-23.85-8.34-35.7l42.84-52.17c20.87-25.41,26.87-35.78,44.53.72l29.55,61.12c11.14,26.39-22.02,37.42-35.36,34.35-11.63-2.68-17.49-16.4-16.51-23.26l3.71-35.53"/>
  </g>
  <g id="_Слой_8" data-name="Слой_8">
    <path class="st0" d="M1355.8,365.48c19.18-10.98,38.37-21.96,52.02-29.92,13.65-7.96,21.75-12.89,25.98-22.2,4.22-9.31,4.55-22.98-.92-31.08-5.47-8.09-16.75-10.6-24.83-10.57-8.08.04-12.96,2.62-23.25,8.05-10.29,5.43-26,13.71-37.48,19.73-11.48,6.02-18.74,9.77-27.22,15.43-8.48,5.66-18.16,13.24-22.35,21.92-4.18,8.68-2.85,18.48-.08,25.02,2.78,6.54,7,9.84,12.04,11.88,5.04,2.04,10.91,2.83,18.69.63,7.79-2.2,17.5-7.4,23.54-11.49,6.03-4.1,8.39-7.1,10.59-12.67,2.21-5.57,4.27-13.72,5.3-21.99,1.04-8.28,1.05-16.69,1.06-25.11"/>
  </g>
  <g id="_Слой_7" data-name="Слой_7">
    <path class="st0" d="M1351.9,778.66c6.72-20.84,13.44-41.69,16.7-54.89,3.26-13.2,3.05-18.78.13-23.58-2.93-4.8-8.59-8.84-15.44-9.82-6.85-.98-14.9,1.1-20.43,5.92-5.53,4.82-8.55,12.37-12.33,23.99-3.78,11.62-8.3,27.31-11.81,36.21-3.51,8.9-5.99,11-9.19,11.5-3.2.5-7.1-.61-8.1-5.15-1-4.55.91-12.54,6.36-29.72,5.45-17.17,14.44-43.53,21.63-59.35,7.19-15.81,12.57-21.08,18.59-25.01,6.01-3.93,12.66-6.51,20.03-7.96,7.37-1.45,15.45-1.77,24.93.68,9.47,2.45,20.34,7.66,28.35,13.5,8.01,5.84,13.15,12.31,15.08,20.93,1.92,8.62.62,19.38-4.34,38.56-4.96,19.18-13.59,46.76-18.36,63.28-4.77,16.52-5.69,21.97-4.05,25.57,1.64,3.59,5.83,5.33,9.15,4.86,3.32-.47,5.75-3.15,7.71-8.11,1.96-4.96,3.45-12.2,6.39-23.29,2.95-11.09,7.35-26.01,9.77-36.96,2.41-10.95,2.83-17.92-.49-23.14-3.32-5.22-10.37-8.69-16.39-10.31-6.01-1.62-11-1.41-15.7,1.2-4.7,2.6-9.13,7.6-12.58,14.36-3.46,6.76-5.95,15.28-9.33,25.92-3.39,10.63-7.67,23.37-11.95,36.11"/>
  </g>
  <g id="_Слой_6" data-name="Слой_6">
    <path class="st0" d="M975.92,780.52c21.34-16,38.55-29.33,48.04-51.69,14.57-34.35-19.8-68.27-45.55-48.56l-65.19,49.87c-11.64,8.9-38.11-3.64-39.33-20.91-1.75-24.45,21.39-42.57,37.85-22.28,4.26,5.25,6.83,14.06,10.91,24l31.85,77.56"/>
  </g>
  <g id="_Слой_5" data-name="Слой_5">
    <path class="st0" d="M1655.62,680.08c1.55,19.54,23.03,29.95,32.51,13.7,6.63-11.37,5.07-17.28-.13-22.12-6.16-5.72-15.41-6.7-19.39-1.67-5.66,7.13-3.37,19.25,10.09,22.54,5.76,1.4,11.16-2.43,17.89-8.83,19.97-19.01,50.75-58.12,61.13-66.73,16.9-14.02,41.16,12.12,27.77,25.64-22.21,22.43-30.39-22.24-17.41-34.69,13.09-12.56,26.44-.16,31.76,10.01"/>
  </g>
  <g id="_Слой_4" data-name="Слой_4">
    <path class="st0" d="M593.99,327.69c-4.44,11.74-8.89,23.48-13.02,31.27-4.14,7.79-7.96,11.63-13.29,14.15-5.33,2.52-12.15,3.7-25.85,4.17-13.7.46-34.27.19-50.52-.63-16.25-.82-28.18-2.18-36.51-7.43-8.33-5.25-13.07-14.39-13.84-24.41-.77-10.01,2.41-20.89,10.52-28.12,8.11-7.24,21.13-10.83,32.44-8.02,11.31,2.81,20.91,12.03,23.2,24.07,2.29,12.04-2.72,26.89-9.53,37.01-6.81,10.12-15.42,15.49-24.02,20.87"/>
  </g>
  <g id="_Слой_3" data-name="Слой_3">
    <path class="st1" d="M945.03,319.13c20.97,0,37.97,17.39,37.97,38.84s-17,38.84-37.97,38.84-37.97-17.39-37.97-38.84,17-38.84,37.97-38.84Z"/>
  </g>
  <g id="_Слой_2" data-name="Слой_2">
    <path class="st0" d="M796.04,301.64c4.5-1.2,9-2.39,12.45-2.94,3.45-.55,5.85-.44,8.11,1.85,2.26,2.29,4.38,6.78,8.07,16.66,3.69,9.88,8.95,25.14,14.35,33.66,5.39,8.52,10.92,10.3,16.46,9.45,5.54-.84,11.1-4.31,14.22-15.21,3.12-10.9,3.8-29.23,6.45-40.21,2.65-10.98,7.26-14.6,11.4-16.19,4.13-1.59,7.79-1.15,10.08-.89,2.28.26,3.2.33,4.12.4"/>
  </g>
</svg>